<svg width="203" height="56" viewBox="0 0 203 56" fill="none" xmlns="http://www.w3.org/2000/svg">
<path d="M20 0H6C2.68629 0 0 2.68629 0 6V20C0 23.3137 2.68629 26 6 26H20C23.3137 26 26 23.3137 26 20V6C26 2.68629 23.3137 0 20 0Z" fill="#111827"/>
<path d="M50 0H36C32.6863 0 30 2.68629 30 6V20C30 23.3137 32.6863 26 36 26H50C53.3137 26 56 23.3137 56 20V6C56 2.68629 53.3137 0 50 0Z" fill="#2563EB"/>
<path opacity="0.3" d="M20 30H6C2.68629 30 0 32.6863 0 36V50C0 53.3137 2.68629 56 6 56H20C23.3137 56 26 53.3137 26 50V36C26 32.6863 23.3137 30 20 30Z" fill="#2563EB"/>
<path opacity="0.1" d="M50 30H36C32.6863 30 30 32.6863 30 36V50C30 53.3137 32.6863 56 36 56H50C53.3137 56 56 53.3137 56 50V36C56 32.6863 53.3137 30 50 30Z" fill="#111827"/>
<path d="M8 13H14H8ZM8 18H18H8Z" fill="black"/>
<path d="M8 13H14M8 18H18" stroke="white" stroke-width="2" stroke-linecap="round"/>
<path d="M38 5L56 13L38 21" stroke="white" stroke-width="2" stroke-linecap="round" stroke-linejoin="round"/>
<path d="M72.8182 33V9.72727H75.6364V20.0909H88.0455V9.72727H90.8636V33H88.0455V22.5909H75.6364V33H72.8182ZM96.142 33V15.5455H98.8239V33H96.142ZM97.5057 12.6364C96.983 12.6364 96.5322 12.4583 96.1534 12.1023C95.7822 11.7462 95.5966 11.3182 95.5966 10.8182C95.5966 10.3182 95.7822 9.89015 96.1534 9.53409C96.5322 9.17803 96.983 9 97.5057 9C98.0284 9 98.4754 9.17803 98.8466 9.53409C99.2254 9.89015 99.4148 10.3182 99.4148 10.8182C99.4148 11.3182 99.2254 11.7462 98.8466 12.1023C98.4754 12.4583 98.0284 12.6364 97.5057 12.6364ZM103.736 33V15.5455H106.327V18.1818H106.509C106.827 17.3182 107.402 16.6174 108.236 16.0795C109.069 15.5417 110.009 15.2727 111.054 15.2727C111.251 15.2727 111.497 15.2765 111.793 15.2841C112.088 15.2917 112.312 15.303 112.463 15.3182V18.0455C112.372 18.0227 112.164 17.9886 111.838 17.9432C111.52 17.8902 111.183 17.8636 110.827 17.8636C109.978 17.8636 109.221 18.0417 108.554 18.3977C107.895 18.7462 107.372 19.2311 106.986 19.8523C106.607 20.4659 106.418 21.1667 106.418 21.9545V33H103.736ZM122.429 33.3636C120.747 33.3636 119.296 32.9924 118.077 32.25C116.865 31.5 115.929 30.4545 115.27 29.1136C114.618 27.7652 114.293 26.197 114.293 24.4091C114.293 22.6212 114.618 21.0455 115.27 19.6818C115.929 18.3106 116.846 17.2424 118.02 16.4773C119.202 15.7045 120.58 15.3182 122.156 15.3182C123.065 15.3182 123.963 15.4697 124.849 15.7727C125.736 16.0758 126.543 16.5682 127.27 17.25C127.997 17.9242 128.577 18.8182 129.009 19.9318C129.44 21.0455 129.656 22.4167 129.656 24.0455V25.1818H116.202V22.8636H126.929C126.929 21.8788 126.732 21 126.338 20.2273C125.952 19.4545 125.399 18.8447 124.679 18.3977C123.967 17.9508 123.126 17.7273 122.156 17.7273C121.088 17.7273 120.164 17.9924 119.384 18.5227C118.611 19.0455 118.016 19.7273 117.599 20.5682C117.183 21.4091 116.974 22.3106 116.974 23.2727V24.8182C116.974 26.1364 117.202 27.2538 117.656 28.1705C118.118 29.0795 118.759 29.7727 119.577 30.25C120.395 30.7197 121.346 30.9545 122.429 30.9545C123.134 30.9545 123.77 30.8561 124.338 30.6591C124.914 30.4545 125.41 30.1515 125.827 29.75C126.243 29.3409 126.565 28.8333 126.793 28.2273L129.384 28.9545C129.111 29.8333 128.652 30.6061 128.009 31.2727C127.365 31.9318 126.569 32.447 125.622 32.8182C124.675 33.1818 123.611 33.3636 122.429 33.3636Z" fill="#1B126D"/>
<path d="M134.099 33V9.72727H148.054V12.2273H136.918V20.0909H147.009V22.5909H136.918V33H134.099ZM155.199 9.72727V33H152.517V9.72727H155.199ZM167.202 33.3636C165.626 33.3636 164.243 32.9886 163.054 32.2386C161.872 31.4886 160.948 30.4394 160.281 29.0909C159.622 27.7424 159.293 26.1667 159.293 24.3636C159.293 22.5455 159.622 20.9583 160.281 19.6023C160.948 18.2462 161.872 17.1932 163.054 16.4432C164.243 15.6932 165.626 15.3182 167.202 15.3182C168.777 15.3182 170.156 15.6932 171.338 16.4432C172.527 17.1932 173.452 18.2462 174.111 19.6023C174.777 20.9583 175.111 22.5455 175.111 24.3636C175.111 26.1667 174.777 27.7424 174.111 29.0909C173.452 30.4394 172.527 31.4886 171.338 32.2386C170.156 32.9886 168.777 33.3636 167.202 33.3636ZM167.202 30.9545C168.399 30.9545 169.384 30.6477 170.156 30.0341C170.929 29.4205 171.501 28.6136 171.872 27.6136C172.243 26.6136 172.429 25.5303 172.429 24.3636C172.429 23.197 172.243 22.1098 171.872 21.1023C171.501 20.0947 170.929 19.2803 170.156 18.6591C169.384 18.0379 168.399 17.7273 167.202 17.7273C166.005 17.7273 165.02 18.0379 164.247 18.6591C163.474 19.2803 162.902 20.0947 162.531 21.1023C162.16 22.1098 161.974 23.197 161.974 24.3636C161.974 25.5303 162.16 26.6136 162.531 27.6136C162.902 28.6136 163.474 29.4205 164.247 30.0341C165.02 30.6477 166.005 30.9545 167.202 30.9545ZM182.565 33L177.247 15.5455H180.065L183.838 28.9091H184.02L187.747 15.5455H190.611L194.293 28.8636H194.474L198.247 15.5455H201.065L195.747 33H193.111L189.293 19.5909H189.02L185.202 33H182.565Z" fill="#2563EB"/>
</svg>
